<svg data-v-423bf9ae="" xmlns="http://www.w3.org/2000/svg" viewBox="0 0 297.72974039975406 163" class="iconAbove"><!----><!----><!----><g data-v-423bf9ae="" id="293edf54-cffa-4e04-b0d1-ea3a626bb6ac" fill="black" transform="matrix(6.349206477356088,0,0,6.349206477356088,0.06348835427843369,103.0634956353017)"><path d="M2.65 9.44C2.86 9.44 3.08 9.25 3.14 9.03L3.60 5.92L3.60 8.93C3.60 9.21 3.82 9.44 4.10 9.44L4.49 9.44C4.77 9.44 5.00 9.21 5.00 8.93L5.00 0.50C5.00 0.22 4.77 0 4.49 0L4.07 0C3.86 0 3.63 0.18 3.58 0.39L2.49 6.03L1.39 0.39C1.34 0.18 1.12 0 0.91 0L0.49 0C0.21 0-0.01 0.22-0.01 0.50L-0.01 8.93C-0.01 9.21 0.21 9.44 0.49 9.44L0.88 9.44C1.15 9.44 1.39 9.21 1.39 8.93L1.39 5.89L1.86 9.04C1.90 9.25 2.13 9.44 2.34 9.44ZM9.48 9.04C9.53 9.25 9.76 9.44 9.97 9.44L10.37 9.44C10.71 9.44 10.93 9.14 10.86 8.82L8.93 0.39C8.89 0.18 8.65 0 8.44 0L8.13 0C7.92 0 7.70 0.18 7.64 0.39L6.37 5.87L5.70 8.83C5.63 9.16 5.85 9.44 6.19 9.44L6.59 9.44C6.80 9.44 7.03 9.25 7.08 9.04L7.57 6.86L9.00 6.86ZM8.29 3.23C8.55 4.42 8.53 4.80 8.68 5.47L7.90 5.47ZM14.43 6.36L15.75 9.14C15.82 9.30 16.04 9.44 16.21 9.44L16.65 9.44C17.05 9.44 17.26 9.07 17.09 8.72L15.19 4.72L17.07 0.71C17.23 0.36 17.01 0 16.62 0L16.18 0C16.02 0 15.79 0.14 15.74 0.29C15.30 1.22 14.85 2.14 14.42 3.07L13.09 0.29C13.03 0.15 12.81 0 12.64 0L12.21 0C11.80 0 11.59 0.36 11.75 0.71L13.65 4.72L11.75 8.72C11.59 9.07 11.82 9.44 12.21 9.44L12.64 9.44C12.81 9.44 13.03 9.28 13.09 9.14ZM19.39 0.50C19.39 0.22 19.15 0 18.89 0L18.49 0C18.21 0 17.99 0.22 17.99 0.50L17.99 8.93C17.99 9.21 18.21 9.44 18.49 9.44L18.89 9.44C19.15 9.44 19.39 9.21 19.39 8.93ZM20.29 0.88C20.29 1.16 20.51 1.39 20.79 1.39L21.92 1.39L21.92 8.92C21.92 9.20 22.15 9.42 22.43 9.42L22.81 9.42C23.09 9.42 23.31 9.20 23.31 8.92L23.31 1.39L24.46 1.39C24.74 1.39 24.96 1.16 24.96 0.88L24.96 0.49C24.96 0.21 24.74-0.01 24.46-0.01L20.79-0.01C20.51-0.01 20.29 0.21 20.29 0.49ZM27.30 0.50C27.30 0.22 27.06 0 26.80 0L26.40 0C26.12 0 25.90 0.22 25.90 0.50L25.90 8.93C25.90 9.21 26.12 9.44 26.40 9.44L26.80 9.44C27.06 9.44 27.30 9.21 27.30 8.93ZM29.46 0.38C29.40 0.17 29.18-0.01 28.97-0.01L28.57-0.01C28.22-0.01 28 0.28 28.08 0.60L30.07 9.03C30.11 9.25 30.34 9.42 30.56 9.42L30.86 9.42C31.07 9.42 31.29 9.25 31.35 9.03L33.33 0.60C33.40 0.28 33.18-0.01 32.84-0.01L32.44-0.01C32.23-0.01 31.99 0.17 31.95 0.38L30.70 5.71ZM35.48 0.50C35.48 0.22 35.24 0 34.97 0L34.58 0C34.30 0 34.08 0.22 34.08 0.50L34.08 8.93C34.08 9.21 34.30 9.44 34.58 9.44L34.97 9.44C35.24 9.44 35.48 9.21 35.48 8.93ZM36.37 0.88C36.37 1.16 36.60 1.39 36.88 1.39L38.01 1.39L38.01 8.92C38.01 9.20 38.23 9.42 38.51 9.42L38.89 9.42C39.17 9.42 39.40 9.20 39.40 8.92L39.40 1.39L40.54 1.39C40.82 1.39 41.05 1.16 41.05 0.88L41.05 0.49C41.05 0.21 40.82-0.01 40.54-0.01L36.88-0.01C36.60-0.01 36.37 0.21 36.37 0.49ZM43.20 0.29C43.15 0.15 42.91 0 42.74 0L42.29 0C41.90 0 41.68 0.35 41.83 0.70C42.43 2.10 43.05 3.49 43.65 4.89L43.65 8.93C43.65 9.21 43.88 9.44 44.14 9.44L44.53 9.44C44.81 9.44 45.04 9.21 45.04 8.93L45.04 4.90L46.84 0.70C46.98 0.35 46.76 0 46.38 0L45.92 0C45.77 0 45.53 0.15 45.46 0.29L44.34 2.87Z"></path></g><!----><g data-v-423bf9ae="" id="33895d6b-4772-46da-a60d-051100fbab29" transform="matrix(1.0011235448719076,0,0,1.0011235448719076,98.94382275640461,-5.005675025280873)" stroke="none" fill="black"><path d="M74.836 25.094c-6.875-6.729-15.211-10.18-24.775-10.25h-.02c-9.705.07-18.108 3.521-24.998 10.27-6.734 6.873-10.182 15.244-10.25 24.896.068 9.638 3.516 18.009 10.27 24.896 6.862 6.728 15.264 10.211 25.008 10.354 9.564-.144 17.897-3.627 24.785-10.374 6.727-6.865 10.208-15.232 10.352-24.903-.145-9.703-3.628-18.07-10.372-24.889zm-1.739 48.034c-6.399 6.268-14.159 9.511-23.026 9.645-9.047-.134-16.875-3.377-23.249-9.625-6.269-6.395-9.478-14.186-9.541-23.138.063-8.97 3.272-16.758 9.521-23.138 6.392-6.263 14.214-9.473 23.249-9.54 8.895.067 16.649 3.277 23.031 9.525 6.263 6.331 9.504 14.125 9.638 23.126-.134 8.974-3.377 16.768-9.623 23.145z"></path><path d="M81.743 18.085C72.948 9.507 62.288 5.121 50.044 5.051c-12.373.07-23.102 4.456-31.908 13.056C9.487 26.967 5.068 37.695 5 50.01c.068 12.3 4.487 22.994 13.16 31.806 8.777 8.503 19.501 12.922 31.869 13.134h.043c12.225-.212 22.88-4.631 31.688-13.158C90.338 73.002 94.791 62.314 95 49.98c-.209-12.29-4.662-23.013-13.257-31.895zm-1.735 61.942c-8.313 8.047-18.391 12.229-29.957 12.434-11.707-.204-21.854-4.387-30.139-12.411-8.181-8.312-12.361-18.425-12.425-30.04.063-11.635 4.244-21.784 12.407-30.145C28.203 11.751 38.35 7.604 50.043 7.539c11.563.065 21.644 4.212 29.935 12.302 8.119 8.39 12.337 18.544 12.534 30.14-.197 11.636-4.411 21.752-12.504 30.046z"></path><path d="M23.294 49.177c-2.182 0-3.968.996-3.968 2.215 0 1.22 1.786 2.219 3.968 2.219 2.184 0 3.969-.999 3.969-2.219 0-1.219-1.785-2.215-3.969-2.215zM56.236 50.405c-.073-1.989-.79-3.604-2.165-4.844l8.351-19.688-4.125-1.646-8.246 19.583a.455.455 0 0 0-.41 0c-4.058.346-6.259 2.544-6.599 6.596.272 4.058 2.474 6.29 6.599 6.701a4.439 4.439 0 0 1 1.027-.103l10.311 10.407 3.194-3.194-9.586-9.377c1.03-1.373 1.576-2.851 1.649-4.435zM50 27.543c1.22 0 2.218-1.786 2.218-3.97 0-2.185-.998-3.97-2.218-3.97s-2.218 1.785-2.218 3.97c0 2.184.998 3.97 2.218 3.97zM50 72.586c-1.22 0-2.218 1.764-2.218 3.919 0 2.152.998 3.916 2.218 3.916s2.218-1.764 2.218-3.916c0-2.155-.998-3.919-2.218-3.919zM76.386 49.177c-2.182 0-3.967.996-3.967 2.215 0 1.22 1.785 2.219 3.967 2.219 2.185 0 3.97-.999 3.97-2.219-.001-1.219-1.786-2.215-3.97-2.215z"></path></g><!----></svg>