<svg width="25" height="25" viewBox="0 0 25 25" fill="none" xmlns="http://www.w3.org/2000/svg">
<path d="M12.75 2.5C10.13 2.5 7.99999 4.63 7.99999 7.25C7.99999 9.82 10.01 11.9 12.63 11.99C12.71 11.98 12.79 11.98 12.85 11.99H12.92C14.1493 11.949 15.3146 11.4315 16.1693 10.5469C17.024 9.66234 17.5012 8.48004 17.5 7.25C17.5 4.63 15.37 2.5 12.75 2.5ZM17.83 14.649C15.04 12.789 10.49 12.789 7.67999 14.649C6.40999 15.499 5.70999 16.649 5.70999 17.879C5.70999 19.109 6.40999 20.249 7.66999 21.089C9.06999 22.029 10.91 22.499 12.75 22.499C14.59 22.499 16.43 22.029 17.83 21.089C19.09 20.239 19.79 19.099 19.79 17.859C19.78 16.629 19.09 15.489 17.83 14.649Z" fill="#EDBD57"/>
</svg>
