<svg width="25" height="25" viewBox="0 0 25 25" fill="none" xmlns="http://www.w3.org/2000/svg">
<path d="M12.909 12.12H12.829C12.7694 12.11 12.7086 12.11 12.649 12.12C9.74899 12.03 7.55899 9.75 7.55899 6.94C7.55899 4.08 9.88899 1.75 12.749 1.75C15.609 1.75 17.939 4.08 17.939 6.94C17.929 9.75 15.729 12.03 12.939 12.12H12.909ZM12.749 3.25C11.7712 3.25264 10.8341 3.64225 10.1427 4.33369C9.45124 5.02513 9.06163 5.96216 9.05899 6.94C9.05899 8.94 10.619 10.55 12.609 10.62C12.659 10.61 12.799 10.61 12.929 10.62C14.889 10.53 16.429 8.92 16.439 6.94C16.4364 5.96216 16.0467 5.02513 15.3553 4.33369C14.6639 3.64225 13.7268 3.25264 12.749 3.25ZM12.922 23.05C10.962 23.05 8.99199 22.55 7.50199 21.55C6.11199 20.63 5.35199 19.37 5.35199 18C5.35199 16.63 6.11199 15.36 7.50199 14.43C10.502 12.44 15.362 12.44 18.342 14.43C19.722 15.35 20.492 16.61 20.492 17.98C20.492 19.35 19.732 20.62 18.342 21.55C16.842 22.55 14.882 23.05 12.922 23.05ZM8.33199 15.69C7.37199 16.33 6.85199 17.15 6.85199 18.01C6.85199 18.86 7.38199 19.68 8.33199 20.31C10.822 21.98 15.022 21.98 17.512 20.31C18.472 19.67 18.992 18.85 18.992 17.99C18.992 17.14 18.462 16.32 17.512 15.69C15.022 14.03 10.822 14.03 8.33199 15.69Z" fill="#949494"/>
</svg>
