<svg width="53" height="53" viewBox="0 0 53 53" fill="none" xmlns="http://www.w3.org/2000/svg">
<rect width="53" height="53" rx="26.5" fill="#F2D495" fill-opacity="0.12"/>
<rect x="5" y="5" width="43" height="43" rx="21.5" fill="#EDBD57"/>
<path d="M26.3947 18.03L26.5004 18.0247C27.0356 18.0247 27.4758 18.4314 27.5287 18.9526L27.534 19.0583V25.467H33.9427C34.4779 25.467 34.9181 25.8737 34.971 26.3949L34.9763 26.5006C34.9763 27.0358 34.5696 27.476 34.0484 27.5289L33.9427 27.5343H27.534V33.9429C27.534 34.4781 27.1273 34.9183 26.6061 34.9712L26.5004 34.9766C25.9652 34.9766 25.525 34.5698 25.4721 34.0486L25.4667 33.9429V27.5343H19.0581C18.5229 27.5343 18.0827 27.1275 18.0298 26.6063L18.0244 26.5006C18.0244 25.9654 18.4312 25.5252 18.9524 25.4723L19.0581 25.467H25.4667V19.0583C25.4667 18.5231 25.8735 18.0829 26.3947 18.03L26.5004 18.0247L26.3947 18.03Z" fill="black"/>
</svg>
