<svg width="25" height="25" viewBox="0 0 25 25" fill="none" xmlns="http://www.w3.org/2000/svg">
<path d="M18.1002 16.7335L18.4402 19.5107C18.5274 20.2401 17.7515 20.7499 17.1324 20.372L14.1158 18.5615C13.9065 18.4385 13.8542 18.1748 13.9676 17.9639C14.4035 17.1553 14.6389 16.2413 14.6389 15.3273C14.6389 12.1107 11.9012 9.49168 8.53583 9.49168C7.84705 9.49168 7.17571 9.59714 6.54797 9.80807C6.47375 9.83114 6.39479 9.83402 6.31911 9.8164C6.24344 9.79878 6.17373 9.76129 6.11706 9.70775C6.0604 9.6542 6.0188 9.58649 5.99648 9.5115C5.97416 9.43651 5.97191 9.3569 5.98998 9.28075C6.78337 6.08171 9.83491 3.7 13.4793 3.7C17.734 3.7 21.1779 6.94299 21.1779 10.9418C21.1779 13.3147 19.966 15.4152 18.1002 16.7335Z" fill="#EDBD57"/>
<path d="M13.1779 15.388C13.1779 16.4271 12.7939 17.3875 12.1481 18.1472C11.2841 19.195 9.91394 19.8673 8.37794 19.8673L6.10012 21.2207C5.71612 21.4564 5.2274 21.1334 5.27976 20.6881L5.49794 18.968C4.32849 18.1559 3.57794 16.8549 3.57794 15.388C3.57794 13.8513 4.39831 12.4979 5.65503 11.6946C6.43176 11.1881 7.36558 10.9 8.37794 10.9C11.031 10.9 13.1779 12.9083 13.1779 15.388Z" fill="#EDBD57"/>
</svg>
