<svg width="25" height="25" viewBox="0 0 25 25" fill="none" xmlns="http://www.w3.org/2000/svg">
<path d="M18.0117 16.6553L18.3474 19.4325C18.4334 20.1619 17.6674 20.6716 17.0563 20.2937L13.45 18.1054C13.0541 18.1054 12.6667 18.079 12.288 18.0263C12.9404 17.254 13.3007 16.2689 13.3037 15.2491C13.3037 12.7531 11.1863 10.7317 8.56979 10.7317C7.57138 10.7317 6.65043 11.0218 5.8844 11.5315C5.85858 11.3118 5.84998 11.0921 5.84998 10.8636C5.84998 6.86477 9.24975 3.62178 13.45 3.62178C17.6502 3.62178 21.05 6.86477 21.05 10.8636C21.05 13.2365 19.8536 15.337 18.0117 16.6553Z" stroke="#949494" stroke-width="1.5" stroke-linecap="round" stroke-linejoin="round"/>
<path d="M13.05 15.3098C13.05 16.3489 12.666 17.3093 12.0202 18.069C11.1562 19.1168 9.78601 19.7891 8.25001 19.7891L5.97219 21.1425C5.58819 21.3782 5.09947 21.0552 5.15183 20.6099L5.37001 18.8897C4.20056 18.0777 3.45001 16.7767 3.45001 15.3098C3.45001 13.773 4.27038 12.4197 5.5271 11.6163C6.30383 11.1099 7.23765 10.8218 8.25001 10.8218C10.9031 10.8218 13.05 12.83 13.05 15.3098Z" stroke="#949494" stroke-width="1.5" stroke-linecap="round" stroke-linejoin="round"/>
</svg>
