<svg width="32" height="32" viewBox="0 0 32 32" fill="none" xmlns="http://www.w3.org/2000/svg">
<path d="M21.3332 2.6665H10.6665C5.33317 2.6665 2.6665 5.33317 2.6665 10.6665V27.9998C2.6665 28.7332 3.2665 29.3332 3.99984 29.3332H21.3332C26.6665 29.3332 29.3332 26.6665 29.3332 21.3332V10.6665C29.3332 5.33317 26.6665 2.6665 21.3332 2.6665ZM18.6665 20.3332H9.33317C8.7865 20.3332 8.33317 19.8798 8.33317 19.3332C8.33317 18.7865 8.7865 18.3332 9.33317 18.3332H18.6665C19.2132 18.3332 19.6665 18.7865 19.6665 19.3332C19.6665 19.8798 19.2132 20.3332 18.6665 20.3332ZM22.6665 13.6665H9.33317C8.7865 13.6665 8.33317 13.2132 8.33317 12.6665C8.33317 12.1198 8.7865 11.6665 9.33317 11.6665H22.6665C23.2132 11.6665 23.6665 12.1198 23.6665 12.6665C23.6665 13.2132 23.2132 13.6665 22.6665 13.6665Z" fill="#DDDDDD"/>
</svg>
