<svg width="32" height="32" viewBox="0 0 32 32" fill="none" xmlns="http://www.w3.org/2000/svg">
<path d="M21.9198 4.13623C19.5065 4.13623 17.3465 5.30956 15.9998 7.10956C15.312 6.18798 14.4188 5.43942 13.3912 4.92329C12.3636 4.40716 11.2298 4.13768 10.0798 4.13623C5.9865 4.13623 2.6665 7.46956 2.6665 11.5896C2.6665 13.1762 2.91984 14.6429 3.35984 16.0029C5.4665 22.6696 11.9598 26.6562 15.1732 27.7496C15.6265 27.9096 16.3732 27.9096 16.8265 27.7496C20.0398 26.6562 26.5332 22.6696 28.6398 16.0029C29.0798 14.6429 29.3332 13.1762 29.3332 11.5896C29.3332 7.46956 26.0132 4.13623 21.9198 4.13623Z" fill="#DDDDDD"/>
</svg>
