<svg width="25" height="25" viewBox="0 0 25 25" fill="none" xmlns="http://www.w3.org/2000/svg">
<path d="M20.29 7.32201L14.53 3.29201C12.96 2.19201 10.55 2.25201 9.03999 3.42201L4.02999 7.33201C3.02999 8.11201 2.23999 9.71201 2.23999 10.972V17.872C2.23999 20.422 4.30999 22.502 6.85999 22.502H17.64C20.19 22.502 22.26 20.432 22.26 17.882V11.102C22.26 9.75201 21.39 8.09201 20.29 7.32201ZM13 18.502C13 18.912 12.66 19.252 12.25 19.252C11.84 19.252 11.5 18.912 11.5 18.502V15.502C11.5 15.092 11.84 14.752 12.25 14.752C12.66 14.752 13 15.092 13 15.502V18.502Z" fill="#EDBD57"/>
</svg>
