<svg width="18" height="18" viewBox="0 0 18 18" fill="none" xmlns="http://www.w3.org/2000/svg">
<path d="M15.6675 3.88444V12.3594C15.6675 13.8444 14.46 15.0519 12.975 15.0519C12.2615 15.05 11.5778 14.7657 11.0733 14.2611C10.5688 13.7566 10.2845 13.0729 10.2825 12.3594C10.2825 10.8819 11.4975 9.67444 12.975 9.67444C13.605 9.67444 14.1675 9.89194 14.625 10.2519V5.78944L7.71752 7.75444V13.8069C7.71554 14.5204 7.43123 15.2041 6.92672 15.7086C6.4222 16.2132 5.73851 16.4975 5.02502 16.4994C3.54002 16.4994 2.33252 15.2919 2.33252 13.8069C2.33252 12.3294 3.54002 11.1219 5.02502 11.1219C5.64752 11.1219 6.21002 11.3394 6.66752 11.6919V5.06194C6.66752 3.95944 7.33502 3.10444 8.39252 2.81944L12.7275 1.63444C13.605 1.39444 14.3475 1.47694 14.8725 1.88194C15.405 2.27944 15.6675 2.95444 15.6675 3.88444Z" fill="#DDDDDD"/>
</svg>
