<svg width="18" height="18" viewBox="0 0 18 18" fill="none" xmlns="http://www.w3.org/2000/svg">
<g clip-path="url(#clip0_507_2146)">
<path fill-rule="evenodd" clip-rule="evenodd" d="M7.19161 16.2108C7.59998 16.6657 8.12424 16.9156 8.66821 16.9156H8.66899C9.21533 16.9156 9.74195 16.6657 10.1511 16.2101C10.3703 15.968 10.744 15.9483 10.986 16.1667C11.2288 16.3851 11.2485 16.7595 11.0301 17.0016C10.3931 17.7087 9.55511 18.0982 8.66899 18.0982H8.66742C7.78367 18.0974 6.94722 17.7079 6.31259 17.0008C6.09421 16.7588 6.11392 16.3843 6.35673 16.1667C6.59955 15.9475 6.97323 15.9672 7.19161 16.2108ZM8.70747 1.14844C12.2117 1.14844 14.5658 3.87774 14.5658 6.42651C14.5658 7.73755 14.8992 8.29334 15.2532 8.88304C15.6033 9.46485 15.9998 10.1255 15.9998 11.3743C15.7247 14.5647 12.3938 14.8249 8.70747 14.8249C5.02109 14.8249 1.68949 14.5647 1.41749 11.4247C1.41514 10.1255 1.81168 9.46485 2.16171 8.88304L2.28528 8.67503C2.58954 8.15212 2.84916 7.58331 2.84916 6.42651C2.84916 3.87774 5.20321 1.14844 8.70747 1.14844ZM8.70747 2.33098C5.95215 2.33098 4.0317 4.48951 4.0317 6.42651C4.0317 8.06551 3.57682 8.82312 3.17476 9.49165C2.85232 10.0285 2.59768 10.4527 2.59768 11.3743C2.72933 12.8611 3.71084 13.6424 8.70747 13.6424C13.6765 13.6424 14.6888 12.8264 14.8196 11.323C14.8173 10.4527 14.5626 10.0285 14.2402 9.49165C13.8381 8.82312 13.3832 8.06551 13.3832 6.42651C13.3832 4.48951 11.4628 2.33098 8.70747 2.33098Z" fill="#DDDDDD"/>
</g>
<defs>
<clipPath id="clip0_507_2146">
<rect width="18" height="18" rx="8" fill="white"/>
</clipPath>
</defs>
</svg>
