<svg width="25" height="25" viewBox="0 0 25 25" fill="none" xmlns="http://www.w3.org/2000/svg">
<path d="M22.75 22.5L20.75 20.5M12.25 21.5C13.4976 21.5 14.7329 21.2543 15.8855 20.7769C17.0381 20.2994 18.0854 19.5997 18.9675 18.7175C19.8497 17.8354 20.5494 16.7881 21.0269 15.6355C21.5043 14.4829 21.75 13.2476 21.75 12C21.75 10.7524 21.5043 9.5171 21.0269 8.36451C20.5494 7.21191 19.8497 6.16464 18.9675 5.28249C18.0854 4.40033 17.0381 3.70056 15.8855 3.22314C14.7329 2.74572 13.4976 2.5 12.25 2.5C9.73044 2.5 7.31408 3.50089 5.53249 5.28249C3.75089 7.06408 2.75 9.48044 2.75 12C2.75 14.5196 3.75089 16.9359 5.53249 18.7175C7.31408 20.4991 9.73044 21.5 12.25 21.5Z" stroke="#949494" stroke-width="1.5" stroke-linecap="round" stroke-linejoin="round"/>
</svg>
