<svg width="25" height="25" viewBox="0 0 25 25" fill="none" xmlns="http://www.w3.org/2000/svg">
<path d="M12.25 21.5C13.4976 21.5 14.7329 21.2543 15.8855 20.7769C17.0381 20.2994 18.0854 19.5997 18.9675 18.7175C19.8497 17.8354 20.5494 16.7881 21.0269 15.6355C21.5043 14.4829 21.75 13.2476 21.75 12C21.75 10.7524 21.5043 9.5171 21.0269 8.36451C20.5494 7.21191 19.8497 6.16464 18.9675 5.28249C18.0854 4.40033 17.0381 3.70056 15.8855 3.22314C14.7329 2.74572 13.4976 2.5 12.25 2.5C9.73044 2.5 7.31408 3.50089 5.53249 5.28249C3.75089 7.06408 2.75 9.48044 2.75 12C2.75 14.5196 3.75089 16.9359 5.53249 18.7175C7.31408 20.4991 9.73044 21.5 12.25 21.5ZM22.05 22.499C21.87 22.499 21.69 22.429 21.56 22.299L19.7 20.439C19.5702 20.307 19.4974 20.1292 19.4974 19.944C19.4974 19.7588 19.5702 19.581 19.7 19.449C19.97 19.179 20.41 19.179 20.69 19.449L22.55 21.309C22.82 21.579 22.82 22.019 22.55 22.299C22.41 22.429 22.23 22.499 22.05 22.499Z" fill="#EDBD57"/>
</svg>
