<svg width="32" height="32" viewBox="0 0 32 32" fill="none" xmlns="http://www.w3.org/2000/svg">
<path d="M29.8666 12.1173C29.8666 12.4177 29.7686 12.6777 29.5726 12.8973L21.6488 21.772C21.4527 21.9915 21.2206 22.1013 20.9523 22.1013C20.6841 22.1013 20.452 21.9915 20.2559 21.772C20.0599 21.5524 19.9619 21.2924 19.9619 20.992V16.5546H16.4952C15.4841 16.5546 14.5787 16.5893 13.7791 16.6586C12.9795 16.728 12.1851 16.8522 11.3958 17.0313C10.6065 17.2104 9.9204 17.456 9.33747 17.768C8.75453 18.08 8.21028 18.4815 7.70473 18.9726C7.19917 19.4637 6.78648 20.0473 6.46663 20.7233C6.14679 21.3993 5.89659 22.1995 5.71604 23.124C5.53548 24.0484 5.44521 25.0942 5.44521 26.2613C5.44521 26.8969 5.471 27.6075 5.52259 28.3933C5.52259 28.4626 5.53548 28.5984 5.56128 28.8006C5.58707 29.0029 5.59997 29.156 5.59997 29.26C5.59997 29.4333 5.55612 29.5777 5.46842 29.6933C5.38072 29.8089 5.25949 29.8666 5.10473 29.8666C4.93965 29.8666 4.79521 29.7684 4.6714 29.572C4.59917 29.468 4.53211 29.3409 4.47021 29.1906C4.4083 29.0404 4.33866 28.8671 4.26128 28.6706C4.1839 28.4742 4.12973 28.3355 4.09878 28.2546C2.78846 24.9613 2.1333 22.3555 2.1333 20.4373C2.1333 18.1377 2.40671 16.2137 2.95354 14.6653C4.62497 10.0084 9.13886 7.67997 16.4952 7.67997H19.9619V3.24263C19.9619 2.94219 20.0599 2.68219 20.2559 2.46263C20.452 2.24308 20.6841 2.1333 20.9523 2.1333C21.2206 2.1333 21.4527 2.24308 21.6488 2.46263L29.5726 11.3373C29.7686 11.5569 29.8666 11.8169 29.8666 12.1173Z" fill="#DDDDDD"/>
</svg>
